<svg width="144" height="27" viewBox="0 0 144 27" fill="none" xmlns="http://www.w3.org/2000/svg">
<g clip-path="url(#clip0)">
<path d="M0 0.93919H6.04565V25.8261H0L0 0.93919ZM16.3761 25.8261H10.3304V0.93919H16.3761L25.4739 14.9088V0.93919H31.5196V25.8261H25.4739L16.3761 11.6218V25.8261ZM41.7913 25.8261H35.7457V0.93919H41.7913L50.8891 14.9088V0.93919H56.9348V25.8261H50.8891L41.7913 11.6218V25.8261ZM72.0783 0.52832H75.6V10.3892H72.0783V0.52832ZM105.183 17.1979V19.3109H98.4913V6.92615H101.015V17.1979H105.183ZM108.059 13.1479C108.059 15.437 109.702 17.2566 111.874 17.2566C113.987 17.2566 115.689 15.4957 115.689 13.2066C115.689 10.8001 114.104 9.03919 111.874 9.03919C109.702 9.03919 108.059 10.8001 108.059 13.1479ZM116.687 8.74571C117.744 9.91963 118.272 11.387 118.272 13.2066C118.272 16.7283 115.454 19.6044 111.933 19.6044C108.294 19.6044 105.476 16.787 105.476 13.2066C105.476 9.50876 108.294 6.69136 111.991 6.69136C113.811 6.69136 115.454 7.39571 116.687 8.74571ZM122.85 12.0327H127.194V14.1457H122.85V19.3109H120.267V6.92615H127.194V8.9805H122.85V12.0327ZM134.824 19.3109H132.3V8.9805H129.307V6.92615H137.759V8.9805H134.824V19.3109Z" fill="white"/>
<path d="M77.6544 0.880493V7.21962C79.65 8.51093 80.9413 10.8588 80.9413 13.6761C80.9413 17.7261 77.7718 21.0131 73.8392 21.0131C69.8478 21.0131 66.6783 17.7261 66.6783 13.5588C66.6783 10.8001 67.9696 8.51093 69.9652 7.21962V0.939189C67.9696 1.52615 66.15 2.52397 64.6826 3.87397C61.9239 6.51528 60.4565 9.91962 60.4565 13.5588C60.4565 20.837 66.4435 26.5892 74.0152 26.5892C81.3522 26.5892 87.2805 20.7196 87.2805 13.5001C87.1631 7.27832 83.2892 2.34788 77.6544 0.880493Z" fill="white"/>
<path d="M140.811 23.3023H90.3913C92.5631 21.1892 93.9131 17.2566 93.9131 13.3827C93.9131 9.50877 92.387 5.45877 90.3913 3.46312H140.811V23.3023ZM143.394 25.8262V0.939209H84.1109C87.9848 3.11095 90.2739 6.92617 90.9196 11.3283C91.037 11.974 91.0957 12.6783 91.0957 13.3827C91.0957 14.087 91.037 14.7914 90.9196 15.437C90.2739 19.8392 87.9848 23.6544 84.1109 25.8262H143.394Z" fill="white"/>
</g>
<defs>
<clipPath id="clip0">
<rect width="143.804" height="27" fill="white"/>
</clipPath>
</defs>
</svg>
